<?xml version="1.0" encoding="UTF-8"?>
<svg width="325px" height="76px" viewBox="0 0 650 153" version="1.1" xmlns="http://www.w3.org/2000/svg" xmlns:xlink="http://www.w3.org/1999/xlink">
    <!-- Generator: Sketch 46.2 (44496) - http://www.bohemiancoding.com/sketch -->
    <title>SH_Logo</title>
    <desc>Created with Sketch.</desc>
    <defs></defs>
    <g id="Symbols" stroke="none" stroke-width="1" fill="none" fill-rule="evenodd">
        <g id="SH_Logo">
            <g id="Group-3" transform="translate(533.513514, 24.525679)" fill="#EC6602">
                <path d="M51.3117414,94.8308755 C53.2293721,94.8308755 55.1470027,95.5514792 56.6194171,96.9926868 C59.5700658,99.9622717 59.5700658,104.710121 56.6194171,107.679706 C53.6716784,110.562121 48.9518045,110.562121 46.0040658,107.679706 C43.1378045,104.794385 43.1378045,100.046536 46.0040658,96.9926868 C47.4793901,95.5514792 49.3941108,94.8308755 51.3117414,94.8308755 M27.7385613,73.2592528 C29.2197054,73.2592528 30.6863,73.8287623 31.7804261,74.9735925 C34.0472459,77.2574415 34.0472459,80.8110642 31.7804261,83.0949132 C29.5950838,85.3816679 25.9024081,85.3816679 23.6355883,83.0949132 C21.3687685,80.8110642 21.3687685,77.2574415 23.6355883,74.9735925 C24.7675432,73.8287623 26.2574171,73.2592528 27.7385613,73.2592528 M74.5386423,69.1390264 C77.0586243,69.1390264 79.5756964,70.1008 81.5398856,72.0243472 C85.3809667,75.9557057 85.468264,82.1098943 81.5398856,86.0441585 C77.6988045,89.8883472 71.4657775,89.8883472 67.540309,86.0441585 C63.7836153,82.1098943 63.7836153,75.9557057 67.540309,72.0243472 C69.5015883,70.1008 72.0215703,69.1390264 74.5386423,69.1390264 M4.4360027,50.9379698 C5.5795973,50.9379698 6.7261018,51.3621962 7.57288559,52.2135547 C9.27227297,53.913366 9.27227297,56.7173283 7.57288559,58.5014038 C5.87640811,60.2012151 2.99268739,60.2012151 1.29620991,58.5014038 C-0.403177477,56.7173283 -0.403177477,53.913366 1.29620991,52.2135547 C2.14299369,51.3621962 3.2894982,50.9379698 4.4360027,50.9379698 M51.3117414,47.8812151 C53.2293721,47.8812151 55.1470027,48.6337811 56.6194171,50.1360075 C59.5700658,53.1404604 59.5700658,57.9464226 56.6194171,60.9537811 C53.6716784,63.958234 48.9518045,63.958234 46.0040658,60.9537811 C43.1378045,57.9464226 43.1378045,53.1404604 46.0040658,50.1360075 C47.4793901,48.6337811 49.3941108,47.8812151 51.3117414,47.8812151 M98.0856333,42.7498189 C101.338913,42.7498189 104.592192,44.0050642 107.100534,46.5184604 C112.117219,51.5423472 112.117219,59.5474415 107.100534,64.5713283 C102.08094,69.5952151 94.0874171,69.5952151 89.0707324,64.5713283 C84.0511378,59.6317057 84.0511378,51.5423472 89.0707324,46.5184604 C91.5790748,44.0050642 94.8323541,42.7498189 98.0856333,42.7498189 M27.7385613,26.2805358 C29.2197054,26.2805358 30.6863,26.8500453 31.7804261,27.9919698 C34.0472459,30.2787245 34.0472459,33.9166113 31.7804261,36.203366 C29.5950838,38.4029509 25.9024081,38.4029509 23.6355883,36.203366 C21.3687685,33.9166113 21.3687685,30.2787245 23.6355883,27.9919698 C24.7675432,26.8500453 26.2574171,26.2805358 27.7385613,26.2805358 M74.5939306,22.1806491 C77.0906333,22.1806491 79.5989757,23.1656679 81.557345,25.1298943 C85.468264,28.9769887 85.468264,35.1311774 81.557345,39.0654415 C77.6435162,42.9125358 71.6054532,42.9125358 67.6945342,39.0654415 C63.8680027,35.1311774 63.7836153,28.9769887 67.6945342,25.1298943 C69.609255,23.1656679 72.094318,22.1806491 74.5939306,22.1806491 M51.3117414,0.934460377 C53.2293721,0.925743396 55.1470027,1.65506415 56.6194171,3.15729057 C59.5700658,6.07457358 59.5700658,11.0548755 56.6194171,13.9721585 C53.6716784,16.979517 48.9518045,16.8923472 46.0040658,13.9721585 C43.1378045,10.9677057 43.1378045,6.1617434 46.0040658,3.15729057 C47.4793901,1.69864906 49.3941108,0.946083019 51.3117414,0.934460377" id="Fill-1"></path>
            </g>
            <path d="M424.846847,2.29243774 L441.503171,2.29243774 L459.765766,39.574966 L459.765766,2.29243774 L471.405405,2.29243774 L471.405405,57.4999849 L454.15255,57.4999849 L433.576577,20.0808906 L433.576577,57.4999849 L424.846847,57.4999849 L424.846847,2.29243774 Z M372.468468,2.29243774 L413.207207,2.29243774 L413.207207,11.0094189 L387.018018,11.0094189 L387.018018,25.5377208 L410.297297,25.5377208 L410.297297,34.2547019 L387.018018,34.2547019 L387.018018,48.7830038 L413.207207,48.7830038 L413.207207,57.4999849 L372.468468,57.4999849 L372.468468,2.29243774 Z M290.990991,2.29243774 L310.836577,2.29243774 L324.731396,37.9419849 L339.307135,2.29243774 L357.918919,2.29243774 L357.918919,57.4999849 L343.369369,57.4999849 L343.369369,18.331683 L327.286297,57.4999849 L317.570108,57.4999849 L302.630631,18.331683 L302.630631,57.4999849 L290.990991,57.4999849 L290.990991,2.29243774 Z M238.612613,2.29243774 L279.351351,2.29243774 L279.351351,11.0094189 L256.072072,11.0094189 L256.072072,25.5377208 L276.441441,25.5377208 L276.441441,34.2547019 L256.072072,34.2547019 L256.072072,48.7830038 L279.351351,48.7830038 L279.351351,57.4999849 L238.612613,57.4999849 L238.612613,2.29243774 Z M209.513514,2.29243774 L226.972973,2.29243774 L226.972973,57.4999849 L217.960982,57.4999849 L209.513514,57.4999849 L209.513514,2.29243774 Z M504.101153,0.999418868 C507.837477,0.999418868 513.081135,1.51081509 519.110468,2.78349434 L520.873874,3.03919245 L520.873874,13.5780226 C515.054054,11.5382491 510.450577,10.5183623 506.036243,10.5183623 C499.753748,10.5183623 496.494649,12.2181736 496.494649,15.6177962 C496.494649,16.8933811 496.986423,17.9132679 498.345351,18.8488906 C499.36382,19.5288151 502.113685,20.8886642 506.868477,23.096966 C513.57582,25.9880981 518.135649,28.6206264 520.428658,30.9160981 C523.059216,33.5515321 524.406505,36.9511547 524.406505,41.1992302 C524.406505,47.2342868 521.767216,51.7380604 516.503189,54.9691547 C512.173243,57.5174189 506.906306,58.7930038 500.198964,58.7930038 C494.51009,58.7930038 488.864865,58.1130792 483.045045,56.7532302 L483.045045,45.7901736 C488.864865,47.745683 494.591568,48.7626642 499.515135,48.7626642 C506.13809,48.7626642 509.449568,47.0657585 509.449568,43.578966 C509.449568,42.219117 508.983982,41.1992302 508.049901,40.2665132 C507.031432,39.3308906 504.461982,37.9710415 500.388108,36.2712302 C493.084234,33.295834 488.320712,30.6604 486.027703,28.5363623 C483.225459,25.8166642 481.691937,22.1613434 481.691937,17.8290038 C481.691937,12.3896075 483.728874,8.13862642 487.974432,5.33466415 C492.048306,2.44353208 497.565495,0.999418868 504.101153,0.999418868 L504.101153,0.999418868 Z M181.418333,0.999418868 C185.06736,0.999418868 189.144144,1.68515472 197.873874,3.05081509 L197.873874,13.7262113 C192.054054,11.6777208 187.444757,10.6520226 183.030423,10.6520226 C176.832315,10.6520226 173.485919,12.3605509 173.485919,15.7776075 C173.485919,17.0590038 174.021342,18.0847019 175.295883,18.9360604 C176.314351,19.6217962 179.128234,20.9874566 183.711342,23.2073811 C190.590369,26.1973057 195.054171,28.7600981 197.259883,31.0671925 C199.977739,33.6299849 201.23191,37.1313057 201.23191,41.4026264 C201.23191,47.4667396 198.592622,51.9937585 193.328595,55.2393811 C189.167423,57.8864377 183.77536,59.167834 177.152405,59.167834 C171.466441,58.9964 165.864865,58.3135698 160.045045,56.9479094 L160.045045,45.9296453 C165.864865,47.8938717 171.713784,48.9195698 176.468577,48.9195698 C183.007144,48.9195698 186.295342,47.2110415 186.295342,43.7097208 C186.295342,42.3411547 185.815207,41.3154566 184.712351,40.3769283 C183.693883,39.4384 181.20591,38.069834 177.213514,36.3613057 C169.91255,33.3742868 165.146117,30.7243245 162.853108,28.5886642 C159.966477,25.6859094 158.517342,22.1845887 158.517342,17.9132679 C158.517342,12.4448151 160.83945,8.1764 165.085009,5.35790943 C169.161793,2.45224906 174.879766,0.999418868 181.418333,0.999418868 L181.418333,0.999418868 Z" id="Fill-4" fill="#009999"></path>
            <path d="M128.016831,110.398694 C120.218272,110.398694 117.509146,118.241072 117.509146,127.704808 C117.509146,135.460015 119.153245,142.2796 126.192317,142.2796 C131.194452,142.2796 133.85702,138.615562 133.85702,135.120053 L133.85702,111.421487 C133.85702,110.825826 130.560092,110.398694 128.016831,110.398694 L128.016831,110.398694 Z M426.538668,109.994808 C420.052479,109.994808 416.639155,116.488958 416.295786,123.067374 C422.525903,122.89594 431.488425,121.358845 431.488425,114.78043 C431.488425,111.7876 429.695921,109.994808 426.538668,109.994808 L426.538668,109.994808 Z M379.994659,109.994808 C373.424083,109.994808 370.007849,116.488958 369.667389,123.067374 C375.981894,122.89594 384.860029,121.358845 384.860029,114.78043 C384.860029,111.7876 382.980227,109.994808 379.994659,109.994808 L379.994659,109.994808 Z M80.2593892,109.994808 C73.6859027,109.994808 70.2725784,116.488958 69.9321189,123.067374 C76.2466234,122.89594 85.1218486,121.358845 85.1218486,114.78043 C85.1218486,111.7876 83.2449568,109.994808 80.2593892,109.994808 L80.2593892,109.994808 Z M282.262425,101.086053 L296.811975,101.086053 L296.811975,150.482279 L289.045425,150.482279 L282.262425,150.482279 L282.262425,101.086053 Z M476.263209,100.594996 C479.059632,100.594996 481.943353,101.019223 484.230542,102.294808 L481.856056,113.772166 C479.822029,112.752279 476.816092,112.072355 474.357218,112.072355 C469.526768,112.072355 468.496659,115.300543 465.58675,120.318619 L465.58675,150.482279 L453.94711,150.482279 L453.94711,110.372543 L452.786056,101.086053 L463.549813,101.086053 L464.821443,108.489675 C467.108632,102.878845 471.770308,100.594996 476.263209,100.594996 L476.263209,100.594996 Z M427.219587,100.594996 C436.950326,100.594996 443.264831,105.464883 443.264831,114.69326 C443.264831,129.134392 428.499948,131.952883 416.723542,132.635713 C417.407371,137.249902 420.477326,142.119789 427.819029,142.119789 C432.93756,142.119789 437.119101,139.899864 439.851506,138.019902 L443.692587,146.992581 C442.581002,147.846845 435.84165,152.373864 426.110912,152.373864 C409.725209,152.373864 403.23902,142.035525 403.23902,127.594392 C403.23902,113.496128 411.517714,100.594996 427.219587,100.594996 L427.219587,100.594996 Z M380.675578,100.594996 C390.406317,100.594996 396.636434,105.464883 396.636434,114.69326 C396.636434,129.134392 381.955939,131.952883 370.179533,132.635713 C370.863362,137.249902 373.936227,142.119789 381.27502,142.119789 C386.396461,142.119789 390.490705,139.899864 393.22311,138.019902 L397.148578,146.992581 C395.952605,147.846845 389.210344,152.373864 379.482515,152.373864 C363.1812,152.373864 356.695011,142.035525 356.695011,127.594392 C356.695011,113.496128 364.889317,100.594996 380.675578,100.594996 L380.675578,100.594996 Z M333.610695,100.594996 C343.073723,100.594996 349.190353,105.950128 349.190353,117.427487 L349.190353,150.482279 L334.640804,150.482279 L334.640804,119.891487 C334.640804,114.707789 333.718362,110.712506 328.515443,110.712506 C323.484209,110.712506 320.091254,114.792053 320.091254,119.382996 L320.091254,150.482279 L308.451614,150.482279 L308.451614,110.965298 L306.772596,101.086053 L317.943741,101.086053 L318.997128,107.30126 C322.238768,102.878845 327.214714,100.594996 333.610695,100.594996 L333.610695,100.594996 Z M130.333119,100.594996 C133.638777,100.594996 139.67684,101.362091 148.406569,104.090506 L148.406569,140.916845 L148.290173,150.482279 L136.929885,150.482279 L136.251876,145.615298 L135.827029,145.565902 C132.946218,149.99994 128.112858,151.978694 122.941948,151.978694 C109.122786,151.978694 104.720092,141.503789 104.720092,128.460279 C104.720092,111.668468 113.377074,100.594996 130.333119,100.594996 L130.333119,100.594996 Z M80.7715333,100.594996 C90.4993622,100.594996 96.8138667,105.464883 96.8138667,114.69326 C96.8138667,129.134392 82.2206685,131.952883 70.2725784,132.635713 C70.9564072,137.249902 74.0292721,142.119789 81.3680649,142.119789 C86.4895063,142.119789 90.6710468,139.899864 93.4005423,138.019902 L97.2416234,146.992581 C96.1329477,147.846845 89.3906865,152.373864 79.6599477,152.373864 C63.274245,152.373864 56.7880559,142.035525 56.7880559,127.594392 C56.7880559,113.496128 65.0667495,100.594996 80.7715333,100.594996 L80.7715333,100.594996 Z M505.176074,100.560128 C511.219957,100.220166 517.965128,101.922883 520.875038,104.651298 L520.875038,104.735562 L517.007768,113.940694 C513.262714,111.299449 509.756272,109.933789 506.436065,110.020958 C503.37193,110.105223 500.936335,111.467977 501.023632,114.707789 C501.276795,118.456091 504.614461,119.394619 508.956047,120.588845 C516.018398,122.375826 523.942083,124.508581 524.538614,134.562166 C525.135146,145.557185 517.819632,151.351072 506.756155,151.949638 C498.244668,152.373864 491.010632,149.648355 488.202569,147.858468 L492.203695,138.740506 C495.692677,140.530392 501.140029,142.488808 505.481614,142.233109 C509.057894,142.148845 511.525497,140.530392 511.353813,136.863449 C511.10065,133.115147 507.696056,132.348053 503.438858,131.240996 C496.120434,129.535374 488.732173,127.149826 488.135641,117.093336 C487.626407,106.952581 495.218362,101.155789 505.176074,100.560128 L505.176074,100.560128 Z M229.884047,86.5577509 L244.433596,86.5577509 L244.433596,105.720581 C247.343506,102.483675 251.161308,100.696694 255.828804,100.696694 C265.844714,100.696694 270.622786,106.403411 270.622786,117.819751 L270.622786,150.482279 L256.073236,150.482279 L256.073236,119.86243 C256.073236,115.007072 256.404966,111.087336 251.312623,111.087336 C246.389056,111.087336 244.433596,115.007072 244.433596,119.522468 L244.433596,150.482279 L229.884047,150.482279 L229.884047,86.5577509 Z M192.055218,86.5577509 L206.604768,86.5577509 L206.604768,101.086053 L218.244407,101.086053 L218.244407,112.708694 L206.604768,112.708694 L206.604768,134.469185 C206.604768,139.757487 207.407903,141.887336 210.969632,141.887336 C212.6632,141.887336 214.380047,141.291675 216.582849,140.437411 L219.306524,149.305487 C216.510101,151.182543 211.103488,152.373864 206.866659,152.373864 C193.134795,152.373864 192.055218,144.531487 192.055218,136.430506 L192.055218,112.708694 L186.235398,112.708694 L186.235398,101.086053 L192.055218,101.086053 L192.055218,86.5577509 Z M160.046209,86.5577509 L171.685849,86.5577509 L171.685849,134.44594 C171.685849,139.740053 173.527822,141.872808 176.996434,141.872808 C178.690002,141.872808 180.881164,141.277147 183.078146,140.422883 L186.037524,149.302581 C183.244011,151.179638 178.454299,152.373864 174.310587,152.373864 C160.604912,152.373864 160.046209,144.519864 160.046209,136.410166 L160.046209,86.5577509 Z M0.00116396396,86.5577509 L14.5507135,86.5577509 L14.5507135,112.708694 L32.010173,112.708694 L32.010173,86.5577509 L46.5597225,86.5577509 L46.5597225,150.482279 L32.010173,150.482279 L32.010173,124.331336 L14.5507135,124.331336 L14.5507135,150.482279 L0.00116396396,150.482279 L0.00116396396,86.5577509 Z M288.90284,79.9241283 C293.218236,79.9241283 296.180524,83.1000151 296.180524,86.8773736 C296.180524,90.9133358 293.218236,93.7434491 288.90284,93.7434491 C284.503056,93.7434491 281.625155,90.9133358 281.625155,86.8773736 C281.625155,83.1000151 284.587443,79.9241283 288.90284,79.9241283 L288.90284,79.9241283 Z" id="Fill-6" fill="#EC6602"></path>
        </g>
    </g>
</svg>